<?xml version="1.0" encoding="UTF-8"?><svg id="_レイヤー_1" xmlns="http://www.w3.org/2000/svg" viewBox="0 0 500 500"><rect x="0" y="0" width="500" height="500" rx="100" ry="100" style="fill:#064e3b;"/><g><path d="M182.25,338.75c-9.5,0-18.96-.29-28.38-.88-9.42-.59-19.21-1.96-29.38-4.12V165.75c8-1.5,16.75-2.62,26.25-3.38s18.33-1.12,26.5-1.12c11,0,21.12,.79,30.38,2.38,9.25,1.59,17.21,4.29,23.88,8.12,6.66,3.84,11.88,8.88,15.62,15.12s5.63,13.96,5.63,23.12c0,13.84-6.67,24.75-20,32.75,11,4.17,18.5,9.84,22.5,17,4,7.17,6,15.25,6,24.25,0,18.17-6.62,31.84-19.88,41-13.25,9.17-32.96,13.75-59.12,13.75Zm-19.75-107.5h19c12,0,20.58-1.54,25.75-4.62,5.16-3.08,7.75-8.04,7.75-14.88s-2.67-11.91-8-14.75c-5.34-2.83-13.17-4.25-23.5-4.25-3.34,0-6.92,.04-10.75,.12-3.84,.09-7.25,.29-10.25,.62v37.75Zm0,29.75v44.75c2.83,.34,5.91,.59,9.25,.75,3.33,.17,7,.25,11,.25,11.66,0,21.08-1.66,28.25-5,7.16-3.33,10.75-9.5,10.75-18.5,0-8-3-13.71-9-17.12-6-3.41-14.59-5.12-25.75-5.12h-24.5Z" style="fill:#fff;"/><path d="M369.25,238c-3.34-.83-7.25-1.71-11.75-2.62-4.5-.91-9.34-1.38-14.5-1.38-2.34,0-5.12,.21-8.38,.62-3.25,.42-5.71,.88-7.38,1.38v100.5h-37.25v-124.5c6.66-2.33,14.54-4.54,23.62-6.62,9.08-2.08,19.21-3.12,30.38-3.12,2,0,4.41,.12,7.25,.38,2.83,.25,5.66,.59,8.5,1,2.83,.42,5.66,.92,8.5,1.5,2.83,.59,5.25,1.29,7.25,2.12l-6.25,30.75Z" style="fill:#fff;"/></g></svg>