<?xml version="1.0" encoding="UTF-8"?><svg id="_レイヤー_1" xmlns="http://www.w3.org/2000/svg" viewBox="0 0 500 500"><rect x="0" y="0" width="500" height="500" rx="100" ry="100" style="fill:#1e40af;"/><g><path d="M166.38,161c26,0,45.91,4.62,59.75,13.88,13.83,9.25,20.75,23.62,20.75,43.12,0,12.17-2.79,22.04-8.38,29.62-5.59,7.59-13.62,13.54-24.12,17.88,3.5,4.34,7.16,9.29,11,14.88,3.83,5.59,7.62,11.42,11.38,17.5,3.75,6.09,7.38,12.42,10.88,19,3.5,6.59,6.75,13.04,9.75,19.38h-43.6c-3.18-5.66-6.4-11.41-9.66-17.25-3.26-5.83-6.61-11.5-10.04-17s-6.82-10.71-10.16-15.62c-3.35-4.91-6.7-9.38-10.04-13.38h-19.25v63.25h-39V165.5c8.5-1.66,17.29-2.83,26.38-3.5,9.08-.66,17.21-1,24.38-1Zm2.25,33.25c-2.84,0-5.38,.09-7.62,.25-2.25,.17-4.38,.34-6.38,.5v47h11c14.66,0,25.16-1.83,31.5-5.5,6.33-3.66,9.5-9.91,9.5-18.75s-3.21-14.54-9.62-18.12c-6.42-3.58-15.88-5.38-28.38-5.38Z" style="fill:#fff;"/><path d="M327.13,201.25c11,0,20.16,1.25,27.5,3.75,7.33,2.5,13.21,6.09,17.62,10.75,4.41,4.67,7.54,10.34,9.38,17,1.83,6.67,2.75,14.09,2.75,22.25v77.5c-5.34,1.17-12.75,2.54-22.25,4.12s-21,2.38-34.5,2.38c-8.5,0-16.21-.75-23.12-2.25-6.92-1.5-12.88-3.96-17.88-7.38-5-3.41-8.84-7.88-11.5-13.38-2.67-5.5-4-12.25-4-20.25s1.54-14.16,4.62-19.5c3.08-5.33,7.21-9.58,12.38-12.75,5.16-3.16,11.08-5.46,17.75-6.88,6.66-1.41,13.58-2.12,20.75-2.12,4.83,0,9.12,.21,12.88,.62,3.75,.42,6.79,.96,9.12,1.62v-3.5c0-6.33-1.92-11.41-5.75-15.25-3.84-3.83-10.5-5.75-20-5.75-6.34,0-12.59,.46-18.75,1.38-6.17,.92-11.5,2.21-16,3.88l-4.75-30c2.16-.66,4.88-1.38,8.12-2.12s6.79-1.41,10.62-2c3.83-.58,7.88-1.08,12.12-1.5,4.25-.41,8.54-.62,12.88-.62Zm3,109c3.66,0,7.16-.08,10.5-.25,3.33-.16,6-.41,8-.75v-28.25c-1.5-.33-3.75-.66-6.75-1-3-.33-5.75-.5-8.25-.5-3.5,0-6.79,.21-9.88,.62-3.09,.42-5.79,1.21-8.12,2.38-2.34,1.17-4.17,2.75-5.5,4.75-1.34,2-2,4.5-2,7.5,0,5.84,1.96,9.88,5.88,12.12,3.91,2.25,9.29,3.38,16.12,3.38Z" style="fill:#fff;"/></g></svg>