<?xml version="1.0" encoding="UTF-8"?><svg id="_レイヤー_1" xmlns="http://www.w3.org/2000/svg" viewBox="0 0 500 500"><rect x="0" y="0" width="500" height="500" rx="100" ry="100" style="fill:#0284c7;"/><g><path d="M195.63,193.75c-18.17,0-31.29,5.04-39.38,15.12-8.09,10.09-12.12,23.88-12.12,41.38,0,8.5,1,16.21,3,23.12,2,6.92,5,12.88,9,17.88s9,8.88,15,11.62,13,4.12,21,4.12c4.33,0,8.04-.08,11.12-.25,3.08-.16,5.79-.5,8.12-1v-60.25h39v85.75c-4.67,1.84-12.17,3.79-22.5,5.88-10.34,2.08-23.09,3.12-38.25,3.12-13,0-24.79-2-35.38-6-10.59-4-19.62-9.83-27.12-17.5-7.5-7.66-13.29-17.08-17.38-28.25-4.09-11.16-6.12-23.91-6.12-38.25s2.25-27.33,6.75-38.5c4.5-11.16,10.66-20.62,18.5-28.38,7.83-7.75,17.04-13.62,27.62-17.62,10.58-4,21.88-6,33.88-6,8.16,0,15.54,.54,22.12,1.62,6.58,1.09,12.25,2.34,17,3.75,4.75,1.42,8.66,2.88,11.75,4.38,3.08,1.5,5.29,2.67,6.62,3.5l-11.25,31.25c-5.34-2.83-11.46-5.29-18.38-7.38-6.92-2.08-14.46-3.12-22.62-3.12Z" style="fill:#fff;"/><path d="M396.37,332.5c-6.34,1.84-14.5,3.54-24.5,5.12s-20.5,2.38-31.5,2.38-20.46-1.5-27.88-4.5c-7.42-3-13.29-7.21-17.62-12.62-4.34-5.41-7.42-11.88-9.25-19.38-1.84-7.5-2.75-15.75-2.75-24.75v-73.25h37.25v68.75c0,12,1.58,20.67,4.75,26,3.16,5.34,9.08,8,17.75,8,2.66,0,5.5-.12,8.5-.38s5.66-.54,8-.88v-101.5h37.25v127Z" style="fill:#fff;"/></g></svg>