<?xml version="1.0" encoding="UTF-8"?><svg id="_レイヤー_1" xmlns="http://www.w3.org/2000/svg" viewBox="0 0 500 500"><rect x="0" y="0" width="500" height="500" rx="100" ry="100" style="fill:#facc15;"/><g><path d="M118,334.88V161.62h116v32.75h-77v36.25h68.5v32.75h-68.5v71.5h-39Z" style="fill:#fff;"/><path d="M382,268.88c0,10.34-1.5,19.79-4.5,28.38-3,8.59-7.34,15.92-13,22-5.67,6.09-12.46,10.79-20.38,14.12-7.92,3.33-16.79,5-26.62,5s-18.46-1.67-26.38-5c-7.92-3.33-14.71-8.04-20.38-14.12-5.67-6.08-10.09-13.41-13.25-22-3.17-8.58-4.75-18.04-4.75-28.38s1.62-19.75,4.88-28.25,7.75-15.75,13.5-21.75,12.58-10.66,20.5-14c7.91-3.33,16.54-5,25.88-5s18.21,1.67,26.12,5c7.91,3.34,14.71,8,20.38,14,5.66,6,10.08,13.25,13.25,21.75,3.16,8.5,4.75,17.92,4.75,28.25Zm-38,0c0-11.5-2.29-20.54-6.88-27.12-4.59-6.58-11.12-9.88-19.62-9.88s-15.09,3.29-19.75,9.88c-4.67,6.59-7,15.62-7,27.12s2.33,20.62,7,27.38c4.66,6.75,11.25,10.12,19.75,10.12s15.04-3.38,19.62-10.12c4.58-6.75,6.88-15.88,6.88-27.38Z" style="fill:#fff;"/></g></svg>