<?xml version="1.0" encoding="UTF-8"?><svg id="_レイヤー_1" xmlns="http://www.w3.org/2000/svg" viewBox="0 0 500 500"><rect x="0" y="0" width="500" height="500" rx="100" ry="100" style="fill:#84cc16;"/><g><path d="M163.5,338.12c-9.5,0-18.96-.29-28.38-.88-9.42-.59-19.21-1.96-29.38-4.12V165.12c8-1.5,16.75-2.62,26.25-3.38s18.33-1.12,26.5-1.12c11,0,21.12,.79,30.38,2.38,9.25,1.59,17.21,4.29,23.88,8.12,6.66,3.84,11.88,8.88,15.62,15.12s5.62,13.96,5.62,23.12c0,13.84-6.67,24.75-20,32.75,11,4.17,18.5,9.84,22.5,17,4,7.17,6,15.25,6,24.25,0,18.17-6.62,31.84-19.88,41-13.25,9.17-32.96,13.75-59.12,13.75Zm-19.75-107.5h19c12,0,20.58-1.54,25.75-4.62,5.16-3.08,7.75-8.04,7.75-14.88s-2.67-11.91-8-14.75c-5.34-2.83-13.17-4.25-23.5-4.25-3.34,0-6.92,.04-10.75,.12-3.84,.09-7.25,.29-10.25,.62v37.75Zm0,29.75v44.75c2.83,.34,5.91,.59,9.25,.75,3.33,.17,7,.25,11,.25,11.66,0,21.08-1.66,28.25-5,7.16-3.33,10.75-9.5,10.75-18.5,0-8-3-13.71-9-17.12-6-3.41-14.59-5.12-25.75-5.12h-24.5Z" style="fill:#fff;"/><path d="M394.25,269.88c0,10.34-1.5,19.79-4.5,28.38-3,8.59-7.34,15.92-13,22-5.67,6.09-12.46,10.79-20.38,14.12-7.92,3.33-16.79,5-26.62,5s-18.46-1.67-26.38-5c-7.92-3.33-14.71-8.04-20.38-14.12-5.67-6.08-10.09-13.41-13.25-22-3.17-8.58-4.75-18.04-4.75-28.38s1.62-19.75,4.88-28.25,7.75-15.75,13.5-21.75,12.58-10.66,20.5-14c7.91-3.33,16.54-5,25.88-5s18.21,1.67,26.12,5c7.91,3.34,14.71,8,20.38,14,5.66,6,10.08,13.25,13.25,21.75,3.16,8.5,4.75,17.92,4.75,28.25Zm-38,0c0-11.5-2.29-20.54-6.88-27.12-4.59-6.58-11.12-9.88-19.62-9.88s-15.09,3.29-19.75,9.88c-4.67,6.59-7,15.62-7,27.12s2.33,20.62,7,27.38c4.66,6.75,11.25,10.12,19.75,10.12s15.04-3.38,19.62-10.12c4.58-6.75,6.88-15.88,6.88-27.38Z" style="fill:#fff;"/></g></svg>