<?xml version="1.0" encoding="UTF-8"?><svg id="_レイヤー_1" xmlns="http://www.w3.org/2000/svg" viewBox="0 0 500 500"><rect x="0" y="0" width="500" height="500" rx="100" ry="100" style="fill:#a21caf;"/><g><path d="M204.43,180.5c2,6.84,4.2,14.54,6.61,23.12,2.41,8.59,4.99,17.46,7.74,26.62,2.74,9.17,5.53,18.34,8.36,27.5,2.83,9.17,5.57,17.67,8.24,25.5,2.18-8.5,4.39-17.75,6.66-27.75,2.26-10,4.39-20.33,6.4-31,2.01-10.66,3.98-21.29,5.9-31.88,1.93-10.58,3.73-20.79,5.4-30.62h40.51c-5.87,29-12.62,58.42-20.25,88.25-7.63,29.84-15.89,58.17-24.77,85h-35.67c-5.82-16-11.48-32.79-16.97-50.38-5.49-17.58-10.9-35.21-16.22-52.88-5.34,17.67-10.68,35.29-16.02,52.88-5.34,17.59-10.93,34.38-16.77,50.38h-35.64c-8.88-26.83-17.12-55.16-24.73-85-7.62-29.83-14.35-59.25-20.21-88.25h42.25c1.67,9.84,3.52,20.04,5.53,30.62,2.01,10.59,4.1,21.21,6.28,31.88,2.18,10.67,4.39,21,6.66,31s4.57,19.25,6.91,27.75c3-8.16,5.93-16.83,8.77-26,2.84-9.16,5.59-18.33,8.27-27.5,2.67-9.16,5.13-18,7.39-26.5s4.3-16.08,6.14-22.75h33.25Z" style="fill:#fff;"/><path d="M369.75,200.25c11,0,20.16,1.25,27.5,3.75,7.33,2.5,13.21,6.09,17.62,10.75,4.41,4.67,7.54,10.34,9.38,17,1.83,6.67,2.75,14.09,2.75,22.25v77.5c-5.34,1.17-12.75,2.54-22.25,4.12s-21,2.38-34.5,2.38c-8.5,0-16.21-.75-23.12-2.25-6.92-1.5-12.88-3.96-17.88-7.38-5-3.41-8.84-7.88-11.5-13.38-2.67-5.5-4-12.25-4-20.25s1.54-14.16,4.62-19.5c3.08-5.33,7.21-9.58,12.38-12.75,5.16-3.16,11.08-5.46,17.75-6.88,6.66-1.41,13.58-2.12,20.75-2.12,4.83,0,9.12,.21,12.88,.62,3.75,.42,6.79,.96,9.12,1.62v-3.5c0-6.33-1.92-11.41-5.75-15.25-3.84-3.83-10.5-5.75-20-5.75-6.34,0-12.59,.46-18.75,1.38-6.17,.92-11.5,2.21-16,3.88l-4.75-30c2.16-.66,4.88-1.38,8.12-2.12s6.79-1.41,10.62-2c3.83-.58,7.88-1.08,12.12-1.5,4.25-.41,8.54-.62,12.88-.62Zm3,109c3.66,0,7.16-.08,10.5-.25,3.33-.16,6-.41,8-.75v-28.25c-1.5-.33-3.75-.66-6.75-1-3-.33-5.75-.5-8.25-.5-3.5,0-6.79,.21-9.88,.62-3.09,.42-5.79,1.21-8.12,2.38-2.34,1.17-4.17,2.75-5.5,4.75-1.34,2-2,4.5-2,7.5,0,5.84,1.96,9.88,5.88,12.12,3.91,2.25,9.29,3.38,16.12,3.38Z" style="fill:#fff;"/></g></svg>