<?xml version="1.0" encoding="UTF-8"?><svg id="_レイヤー_1" xmlns="http://www.w3.org/2000/svg" viewBox="0 0 500 500"><rect x="0" y="0" width="500" height="500" rx="100" ry="100" style="fill:#ca8a04;"/><g><path d="M251.88,161.62v33.25h-52.25v140h-39V194.88h-52.25v-33.25H251.88Z" style="fill:#fff;"/><path d="M268.13,270.12c0-11.66,1.79-21.88,5.38-30.62,3.58-8.75,8.29-16.04,14.12-21.88s12.54-10.25,20.12-13.25c7.58-3,15.38-4.5,23.38-4.5,18.66,0,33.41,5.71,44.25,17.12,10.83,11.42,16.25,28.21,16.25,50.38,0,2.17-.09,4.54-.25,7.12-.17,2.59-.34,4.88-.5,6.88h-84.5c.83,7.67,4.41,13.75,10.75,18.25,6.33,4.5,14.83,6.75,25.5,6.75,6.83,0,13.54-.62,20.12-1.88,6.58-1.25,11.96-2.79,16.12-4.62l5,30.25c-2,1-4.67,2-8,3-3.34,1-7.04,1.88-11.12,2.62-4.09,.75-8.46,1.38-13.12,1.88-4.67,.5-9.34,.75-14,.75-11.84,0-22.12-1.75-30.88-5.25s-16-8.29-21.75-14.38c-5.75-6.08-10-13.29-12.75-21.62-2.75-8.33-4.12-17.33-4.12-27Zm87.5-14.25c-.17-3.16-.71-6.25-1.62-9.25-.92-3-2.34-5.66-4.25-8-1.92-2.33-4.34-4.25-7.25-5.75-2.92-1.5-6.54-2.25-10.88-2.25s-7.75,.71-10.75,2.12c-3,1.42-5.5,3.29-7.5,5.62-2,2.34-3.54,5.04-4.62,8.12-1.09,3.09-1.88,6.21-2.38,9.38h49.25Z" style="fill:#fff;"/></g></svg>