<?xml version="1.0" encoding="UTF-8"?><svg id="_レイヤー_1" xmlns="http://www.w3.org/2000/svg" viewBox="0 0 500 500"><rect x="0" y="0" width="500" height="500" rx="100" ry="100" style="fill:#db2777;"/><g><path d="M159.13,345.75V172.5h116v32.75h-77v36.25h68.5v32.75h-68.5v71.5h-39Z" style="fill:#fff;"/><path d="M340.88,176.25c0,6.84-2.21,12.21-6.62,16.12-4.42,3.92-9.62,5.88-15.62,5.88s-11.21-1.96-15.62-5.88c-4.42-3.91-6.62-9.29-6.62-16.12s2.21-12.21,6.62-16.12c4.41-3.91,9.62-5.88,15.62-5.88s11.21,1.96,15.62,5.88c4.41,3.92,6.62,9.29,6.62,16.12Zm-3.5,169.5h-37.25V214.25h37.25v131.5Z" style="fill:#fff;"/></g></svg>