<?xml version="1.0" encoding="UTF-8"?><svg id="_レイヤー_1" xmlns="http://www.w3.org/2000/svg" viewBox="0 0 500 500"><rect x="0" y="0" width="500" height="500" rx="100" ry="100" style="fill:#b91c1c;"/><g><path d="M207.88,161.88h39v173.25h-39v-73.5h-65.5v73.5h-39V161.88h39v66.25h65.5v-66.25Z" style="fill:#fff;"/><path d="M396.63,330.62c-6.34,1.84-14.5,3.54-24.5,5.12s-20.5,2.38-31.5,2.38-20.46-1.5-27.88-4.5c-7.42-3-13.29-7.21-17.62-12.62-4.34-5.41-7.42-11.88-9.25-19.38-1.84-7.5-2.75-15.75-2.75-24.75v-73.25h37.25v68.75c0,12,1.58,20.67,4.75,26,3.16,5.34,9.08,8,17.75,8,2.66,0,5.5-.12,8.5-.38s5.66-.54,8-.88v-101.5h37.25v127Z" style="fill:#fff;"/></g></svg>