<?xml version="1.0" encoding="UTF-8"?><svg id="_レイヤー_1" xmlns="http://www.w3.org/2000/svg" viewBox="0 0 2000 500"><g><path d="m360.19,402.93c22.95-5.97,46.66-.1,63.34,15.33-7.13-21.79-2.81-45.94,11.84-64.35,7.54-9.48,17.4-16.76,28.51-21.07,10.54-4.09,21.82-5.47,33.6-4.12-18.78-14.37-29.07-37.4-27.09-61.35.99-11.93,5.07-23.32,11.81-32.94,6.31-9,14.66-16.24,24.9-21.6-22.01-.83-43.29-13.28-55.43-32.82-13.61-21.92-13.5-48.46.29-72.81-10.2-9.16-21.49-17.41-33.84-24.54-29.74-17.07-63.36-26.21-97.64-26.55,73.76,52.26,95.62,152.07,50.45,230.37-45.31,78.34-142.86,109.24-225.01,71.28,17.48,29.64,42.32,54.26,72.1,71.5,29.02,16.75,60.48,25.4,91.79,26.67,5.93-26.37,24.77-46.32,50.39-52.99Z" style="fill:#111827;"/><path id="path4505-5" d="m229.62,118.89l-24.96,9.84-9.84,24.96-9.84-24.96-24.96-9.84,24.96-9.84,9.84-24.96,9.84,24.96,24.96,9.84Z" style="fill:#111827;"/><path id="path4505" d="m321.79,253.69l-49.64-7.4-39.29,31.23,7.4-49.64-31.23-39.29,49.64,7.4,39.29-31.23-7.4,49.64,31.23,39.29Z" style="fill:#111827;"/><path d="m502.43,332.06c-13.27-2.42-25.93-1.35-37.62,3.18-10.69,4.14-20.17,11.16-27.42,20.27-15.36,19.31-18.92,45.17-9.29,67.5l.04.09c25.24-16.59,47.11-39.16,63.24-67.11,4.49-7.78,8.39-15.74,11.73-23.82l-.67-.12Zm-43.28,42.01l-11.62,8.28,2.84-13.98-8.28-11.62,13.98,2.84,11.62-8.28-2.84,13.98,8.28,11.62-13.98-2.84Z" style="fill:#111827;"/><path d="m513.43,212.66h0c-12.23,5.31-22.03,13.13-29.11,23.24-6.48,9.24-10.4,20.19-11.35,31.67-2.06,24.85,9.59,48.65,30.4,62.13l.59.38c15.29-38.2,17.98-79.1,9.48-117.42Zm-12.17,61.29l-6.59,12.65-3.82-13.75-12.65-6.59,13.75-3.82,6.59-12.65,3.82,13.75,12.65,6.59-13.75,3.82Z" style="fill:#111827;"/><path d="m425.94,424.39c-16.08-17.96-41.02-25.22-65.1-18.96-24.66,6.42-42.8,25.18-48.52,50.58,40.12,1.12,79.85-9.89,113.7-31.53l-.08-.09Zm-55.52,20.98l-9.83-10.35-14.27.12,10.35-9.83-.12-14.27,9.83,10.35,14.27-.12-10.35,9.83.12,14.27Z" style="fill:#111827;"/><path d="m453.93,108.97c-13.03,23.37-13.07,48.72-.06,69.66,12.72,20.49,35.88,32.88,58.98,31.55h.02c-8.98-38.18-29.09-73.67-58.94-101.21Zm30.23,72.16l-12.42-7.02-13.61,4.29,7.02-12.42-4.29-13.61,12.42,7.02,13.61-4.29-7.02,12.42,4.29,13.61Z" style="fill:#111827;"/></g><g><path d="m646.03,338.4v-131.98h25.12v112.48h107.04v19.5h-132.17Z" style="fill:#111827;"/><path d="m836.49,338.4c-29.99,0-41.43-12.94-41.43-31.87v-100.11h24.93v100.3c0,7.87,5.25,12.19,16.5,12.19h81.92c11.25,0,16.5-4.31,16.5-12.19v-100.3h24.93v100.11c0,18.93-6.19,31.87-36.18,31.87h-87.17Z" style="fill:#111827;"/><path d="m1357.98,338.4v-131.98h135.73v19.5h-110.8v33h105.17v19.5h-105.17v40.49h110.8v19.5h-135.73Z" style="fill:#111827;"/><path d="m1516.57,338.4l21.61-19.5h93.12c11.25,0,16.5-4.31,16.5-12.19v-16.68c0-7.87-5.25-12.18-16.5-12.18h-77.61c-29.99,0-41.43-12.94-41.43-31.87v-7.69c0-18.93,11.44-31.87,41.43-31.87h111.73l-23.84,19.5h-87.89c-11.25,0-16.5,4.31-16.5,12.19v8.06c0,7.87,5.25,12.19,16.5,12.19h77.61c29.99,0,41.43,12.94,41.43,31.87v16.31c0,18.93-11.43,31.87-41.43,31.87h-114.73Z" style="fill:#111827;"/><path d="m1694.84,338.4l22.55-19.5h92.19c11.25,0,16.5-4.31,16.5-12.19v-16.68c0-7.87-5.25-12.18-16.5-12.18h-77.61c-30,0-41.43-12.94-41.43-31.87v-7.69c0-18.93,11.43-31.87,41.43-31.87h111.73l-25.3,19.5h-86.43c-11.25,0-16.5,4.31-16.5,12.19v8.06c0,7.87,5.25,12.19,16.5,12.19h77.61c29.99,0,41.43,12.94,41.43,31.87v16.31c0,18.93-11.43,31.87-41.43,31.87h-114.73Z" style="fill:#111827;"/><polygon points="1155.86 216.61 1085.24 314.22 1006.88 206.42 983.63 206.42 983.63 338.4 1006.69 338.4 1006.69 246.17 1073.99 338.4 1094.43 338.4 1155.86 253.81 1155.86 216.61" style="fill:#111827;"/><path d="m1163.36,339.18v-132.76h22.51v132.76h-22.51Z" style="fill:#111827;"/><path d="m1163.36,171.57v22.51h22.51v-22.51h-22.51Z" style="fill:#111827;"/><path d="m862.49,273.57h0c0,7.76,6.29,14.06,14.06,14.06h0c7.76,0,14.06-6.29,14.06-14.06h0c0-7.76-6.29-14.06-14.06-14.06h0c-7.76,0-14.06,6.29-14.06,14.06Z" style="fill:#111827;"/><polygon points="1315.63 206.42 1315.63 304.47 1193.35 213.24 1193.35 242.2 1325.19 338.4 1337.37 338.4 1337.37 206.42 1315.63 206.42" style="fill:#111827;"/></g></svg>