<?xml version="1.0" encoding="UTF-8"?><svg id="_レイヤー_1" xmlns="http://www.w3.org/2000/svg" viewBox="0 0 700 700"><g><path d="m386.46,490.21c30.78-8.01,62.59-.14,84.95,20.56-9.56-29.22-3.77-61.62,15.88-86.31,10.11-12.71,23.34-22.49,38.24-28.27,14.13-5.48,29.26-7.33,45.07-5.53-25.19-19.28-38.99-50.16-36.33-82.29,1.32-16,6.8-31.28,15.84-44.18,8.46-12.07,19.67-21.79,33.39-28.97-29.52-1.12-58.07-17.81-74.34-44.02-18.26-29.41-18.11-65,.4-97.67-13.68-12.29-28.83-23.35-45.39-32.91-39.88-22.9-84.98-35.16-130.97-35.62,98.93,70.09,128.25,203.97,67.66,309-60.78,105.07-191.61,146.52-301.8,95.61,23.45,39.75,56.76,72.78,96.7,95.91,38.92,22.47,81.12,34.08,123.11,35.78,7.95-35.37,33.22-62.15,67.59-71.09Z" style="fill:#fff;"/><path d="m319.54,561.32h-.07s.04,0,.07,0Z" style="fill:#fff;"/><path id="path4505-5" d="m211.33,109.23l-33.48,13.2-13.2,33.48-13.2-33.48-33.48-13.2,33.48-13.2,13.2-33.48,13.2,33.48,33.48,13.2Z" style="fill:#fff;"/><path id="path4505" d="m334.96,290.04l-66.58-9.92-52.7,41.88,9.92-66.58-41.88-52.7,66.58,9.92,52.7-41.88-9.92,66.58,41.88,52.7Z" style="fill:#fff;"/><path d="m577.25,395.15c-17.8-3.25-34.78-1.81-50.46,4.27-14.33,5.56-27.05,14.96-36.78,27.19-20.61,25.9-25.38,60.59-12.47,90.54l.06.14c33.86-22.25,63.18-52.54,84.82-90.02,6.02-10.44,11.26-21.11,15.75-31.95l-.91-.17Zm-58.05,56.34l-15.59,11.11,3.81-18.76-11.11-15.59,18.76,3.81,15.59-11.11-3.81,18.76,11.11,15.59-18.76-3.81Z" style="fill:#fff;"/><path d="m592.01,235h-.01c-16.41,7.13-29.55,17.62-39.05,31.18-8.69,12.4-13.95,27.08-15.23,42.47-2.76,33.32,12.87,65.26,40.78,83.34l.8.52c20.51-51.24,24.12-106.1,12.71-157.51Zm-16.33,82.21l-8.84,16.97-5.12-18.44-16.97-8.84,18.44-5.12,8.84-16.97,5.12,18.44,16.97,8.84-18.44,5.12Z" style="fill:#fff;"/><path d="m474.65,519c-21.56-24.09-55.02-33.83-87.32-25.43-33.08,8.61-57.41,33.77-65.08,67.85,53.81,1.5,107.11-13.26,152.51-42.29l-.11-.13Zm-74.47,28.14l-13.18-13.88-19.14.16,13.88-13.18-.16-19.14,13.18,13.88,19.14-.16-13.88,13.18.16,19.14Z" style="fill:#fff;"/><path d="m512.19,95.92c-17.48,31.35-17.53,65.35-.09,93.44,17.07,27.49,48.12,44.1,79.11,42.32h.04c-12.04-51.21-39.02-98.82-79.06-135.76Zm40.54,96.8l-16.66-9.42-18.26,5.75,9.42-16.66-5.75-18.26,16.66,9.42,18.26-5.75-9.42,16.66,5.75,18.26Z" style="fill:#fff;"/></g><g><path d="m63.86,674.63v-62.68h11.93v53.42h50.84v9.26h-62.77Z" style="fill:#fff;"/><path d="m154.31,674.63c-14.25,0-19.68-6.14-19.68-15.14v-47.54h11.84v47.63c0,3.74,2.49,5.79,7.84,5.79h38.91c5.34,0,7.83-2.05,7.83-5.79v-47.63h11.84v47.54c0,8.99-2.94,15.14-17.18,15.14h-41.4Z" style="fill:#fff;"/><path d="m401.99,674.63v-62.68h64.46v9.26h-52.62v15.67h49.95v9.26h-49.95v19.23h52.62v9.26h-64.46Z" style="fill:#fff;"/><path d="m477.31,674.63l10.26-9.26h44.23c5.34,0,7.83-2.05,7.83-5.79v-7.92c0-3.74-2.49-5.79-7.83-5.79h-36.86c-14.24,0-19.68-6.14-19.68-15.14v-3.65c0-8.99,5.43-15.14,19.68-15.14h53.07l-11.32,9.26h-41.74c-5.34,0-7.83,2.05-7.83,5.79v3.83c0,3.74,2.49,5.79,7.83,5.79h36.86c14.25,0,19.68,6.14,19.68,15.14v7.75c0,8.99-5.43,15.14-19.68,15.14h-54.49Z" style="fill:#fff;"/><path d="m561.98,674.63l10.71-9.26h43.78c5.34,0,7.83-2.05,7.83-5.79v-7.92c0-3.74-2.49-5.79-7.83-5.79h-36.86c-14.25,0-19.68-6.14-19.68-15.14v-3.65c0-8.99,5.43-15.14,19.68-15.14h53.07l-12.01,9.26h-41.05c-5.34,0-7.84,2.05-7.84,5.79v3.83c0,3.74,2.49,5.79,7.84,5.79h36.86c14.25,0,19.68,6.14,19.68,15.14v7.75c0,8.99-5.43,15.14-19.68,15.14h-54.49Z" style="fill:#fff;"/><polygon points="305.99 616.79 272.46 663.14 235.24 611.95 224.2 611.95 224.2 674.63 235.15 674.63 235.15 630.82 267.11 674.63 276.82 674.63 305.99 634.45 305.99 616.79" style="fill:#fff;"/><path d="m309.56,675v-63.05h10.69v63.05h-10.69Z" style="fill:#fff;"/><path d="m309.56,595.39v10.69h10.69v-10.69h-10.69Z" style="fill:#fff;"/><path d="m166.66,643.84h0c0,3.69,2.99,6.68,6.68,6.68h0c3.69,0,6.68-2.99,6.68-6.68h0c0-3.69-2.99-6.68-6.68-6.68h0c-3.69,0-6.68,2.99-6.68,6.68Z" style="fill:#fff;"/><polygon points="381.87 611.95 381.87 658.51 323.8 615.18 323.8 628.94 386.42 674.63 392.2 674.63 392.2 611.95 381.87 611.95" style="fill:#fff;"/></g></svg>