<?xml version="1.0" encoding="UTF-8"?><svg id="_レイヤー_1" xmlns="http://www.w3.org/2000/svg" viewBox="0 0 1000 1000"><g><path d="m550.97,695.32c43.03-11.19,87.49-.19,118.76,28.74-13.36-40.85-5.27-86.13,22.19-120.65,14.14-17.77,32.62-31.43,53.46-39.51,19.76-7.66,40.9-10.25,63-7.73-35.21-26.95-54.51-70.13-50.79-115.04,1.85-22.37,9.51-43.73,22.14-61.76,11.82-16.87,27.49-30.46,46.68-40.49-41.26-1.56-81.17-24.89-103.93-61.54-25.53-41.11-25.32-90.86.56-136.54-19.12-17.18-40.3-32.64-63.45-46-55.75-32.01-118.8-49.15-183.08-49.79,138.3,97.98,179.28,285.14,94.59,431.95-84.96,146.88-267.85,204.82-421.89,133.65,32.78,55.57,79.34,101.74,135.18,134.07,54.4,31.41,113.4,47.64,172.09,50.02,11.12-49.45,46.44-86.87,94.49-99.37Z" style="fill:#111827;"/><path d="m457.42,794.73h-.09s.06,0,.09,0Z" style="fill:#111827;"/><path id="path4505-5" d="m306.15,162.75l-46.8,18.46-18.46,46.8-18.46-46.8-46.8-18.46,46.8-18.46,18.46-46.8,18.46,46.8,46.8,18.46Z" style="fill:#111827;"/><path id="path4505" d="m478.97,415.5l-93.07-13.87-73.67,58.55,13.87-93.07-58.55-73.67,93.07,13.87,73.67-58.55-13.87,93.07,58.55,73.67Z" style="fill:#111827;"/><path d="m817.67,562.44c-24.89-4.54-48.62-2.53-70.54,5.97-20.04,7.77-37.82,20.92-51.42,38.01-28.8,36.21-35.48,84.7-17.43,126.56l.08.19c47.33-31.11,88.32-73.44,118.57-125.84,8.42-14.59,15.75-29.51,22.01-44.66l-1.27-.23Zm-81.15,78.76l-21.79,15.53,5.32-26.22-15.53-21.79,26.22,5.32,21.79-15.53-5.32,26.22,15.53,21.79-26.22-5.32Z" style="fill:#111827;"/><path d="m838.31,338.56h-.02c-22.94,9.97-41.31,24.63-54.59,43.59-12.14,17.33-19.5,37.86-21.28,59.38-3.86,46.59,17.99,91.23,57.01,116.5l1.12.72c28.67-71.63,33.71-148.32,17.77-220.18Zm-22.82,114.92l-12.36,23.73-7.16-25.78-23.73-12.36,25.78-7.16,12.36-23.73,7.16,25.78,23.73,12.36-25.78,7.16Z" style="fill:#111827;"/><path d="m674.25,735.56c-30.14-33.67-76.91-47.3-122.06-35.55-46.25,12.03-80.26,47.21-90.97,94.84,75.22,2.09,149.73-18.53,213.19-59.11l-.16-.18Zm-104.1,39.34l-18.42-19.4-26.75.22,19.4-18.42-.22-26.75,18.42,19.4,26.75-.22-19.4,18.42.22,26.75Z" style="fill:#111827;"/><path d="m726.73,144.15c-24.43,43.82-24.51,91.36-.12,130.63,23.86,38.43,67.27,61.64,110.58,59.15h.06c-16.83-71.59-54.55-138.14-110.52-189.78Zm56.67,135.31l-23.29-13.16-25.52,8.03,13.16-23.29-8.03-25.52,23.29,13.16,25.52-8.03-13.16,23.29,8.03,25.52Z" style="fill:#111827;"/></g><g><path d="m100,953.12v-87.62h16.68v74.68h71.07v12.94h-87.75Z" style="fill:#111827;"/><path d="m226.45,953.12c-19.91,0-27.51-8.59-27.51-21.16v-66.46h16.55v66.59c0,5.23,3.49,8.09,10.95,8.09h54.39c7.47,0,10.95-2.86,10.95-8.09v-66.59h16.55v66.46c0,12.57-4.11,21.16-24.02,21.16h-57.88Z" style="fill:#111827;"/><path d="m572.68,953.12v-87.62h90.11v12.94h-73.56v21.91h69.82v12.94h-69.82v26.88h73.56v12.94h-90.11Z" style="fill:#111827;"/><path d="m677.97,953.12l14.35-12.94h61.82c7.47,0,10.95-2.86,10.95-8.09v-11.08c0-5.23-3.48-8.09-10.95-8.09h-51.53c-19.91,0-27.51-8.59-27.51-21.16v-5.1c0-12.57,7.59-21.16,27.51-21.16h74.18l-15.83,12.94h-58.35c-7.47,0-10.95,2.86-10.95,8.09v5.35c0,5.23,3.48,8.09,10.95,8.09h51.53c19.91,0,27.51,8.59,27.51,21.16v10.83c0,12.57-7.59,21.16-27.51,21.16h-76.17Z" style="fill:#111827;"/><path d="m796.32,953.12l14.97-12.94h61.2c7.47,0,10.95-2.86,10.95-8.09v-11.08c0-5.23-3.48-8.09-10.95-8.09h-51.53c-19.92,0-27.51-8.59-27.51-21.16v-5.1c0-12.57,7.59-21.16,27.51-21.16h74.18l-16.8,12.94h-57.39c-7.47,0-10.95,2.86-10.95,8.09v5.35c0,5.23,3.48,8.09,10.95,8.09h51.53c19.91,0,27.51,8.59,27.51,21.16v10.83c0,12.57-7.59,21.16-27.51,21.16h-76.17Z" style="fill:#111827;"/><polygon points="438.48 872.26 391.6 937.07 339.58 865.5 324.14 865.5 324.14 953.12 339.45 953.12 339.45 891.88 384.13 953.12 397.7 953.12 438.48 896.96 438.48 872.26" style="fill:#111827;"/><path d="m443.46,953.64v-88.14h14.94v88.14h-14.94Z" style="fill:#111827;"/><path d="m443.46,842.36v14.94h14.94v-14.94h-14.94Z" style="fill:#111827;"/><path d="m243.71,910.08h0c0,5.16,4.18,9.33,9.33,9.33h0c5.16,0,9.33-4.18,9.33-9.33h0c0-5.16-4.18-9.33-9.33-9.33h0c-5.16,0-9.33,4.18-9.33,9.33Z" style="fill:#111827;"/><polygon points="544.56 865.5 544.56 930.59 463.38 870.02 463.38 889.25 550.91 953.12 559 953.12 559 865.5 544.56 865.5" style="fill:#111827;"/></g></svg>