<?xml version="1.0" encoding="UTF-8"?><svg id="svg8" xmlns="http://www.w3.org/2000/svg" viewBox="0 0 222.81 50"><path id="path4505-5" d="M10.46,7.85l-3.12,1.23-1.23,3.12-1.23-3.12-3.12-1.23,3.12-1.23,1.23-3.12,1.23,3.12,3.12,1.23Z" style="fill:#fff;"/><path id="path4505" d="M21.99,24.7l-6.21-.92-4.91,3.9,.92-6.21-3.9-4.91,6.21,.92,4.91-3.9-.92,6.21,3.9,4.91Z" style="fill:#fff;"/><g><path d="M41.4,26.78c-.26,3.04,1.04,5.82,3.4,7.36,1.81-4.57,2.17-9.45,1.24-14.06-2.6,1.11-4.38,3.64-4.64,6.69Zm2.9,.76l-1.06,1.43-.2-1.77-1.43-1.06,1.77-.2,1.06-1.43,.2,1.77,1.43,1.06-1.77,.2Z" style="fill:#fff;"/><path d="M36.95,37.76c-1.91,2.34-2.41,5.34-1.38,7.92,3.03-2.05,5.66-4.81,7.61-8.19,.5-.87,.94-1.75,1.32-2.65-2.76-.53-5.63,.56-7.56,2.92Zm2.26,2.33l-1.4,1.11,.26-1.76-1.11-1.4,1.76,.26,1.4-1.11-.26,1.76,1.11,1.4-1.76-.26Z" style="fill:#fff;"/><path d="M38.85,15.26c1.53,2.66,4.2,4.2,7.04,4.1-1.07-4.64-3.45-8.96-6.99-12.37-1.58,2.41-1.61,5.57-.06,8.27Zm.34-3.06l1.64,.71,1.64-.71-.71,1.64,.71,1.64-1.64-.71-1.64,.71,.71-1.64-.71-1.64Z" style="fill:#fff;"/><path d="M27.11,44.16c-2.98,.82-5.16,3.05-5.76,5.84,4.79,.03,9.5-1.32,13.56-3.88-1.94-1.99-4.88-2.75-7.8-1.95Zm1.04,4.79l-1.06-1.43-1.77-.2,1.43-1.06,.2-1.77,1.06,1.43,1.77,.2-1.43,1.06-.2,1.77Z" style="fill:#fff;"/><path d="M26.95,43.56c2.81-.77,5.66-.2,7.73,1.47-.69-2.58-.05-5.41,1.79-7.66,1.85-2.27,4.52-3.46,7.19-3.28-2.04-1.74-3.13-4.45-2.88-7.36,.25-2.91,1.77-5.39,4.07-6.75-2.66-.26-5.09-1.87-6.55-4.4-1.69-2.94-1.64-6.39,.13-9.02-1.32-1.21-2.79-2.3-4.41-3.24C30.31,1.19,26.11,.04,21.82,0c9.22,6.53,11.95,19.01,6.31,28.8-5.66,9.79-17.86,13.66-28.13,8.91,2.19,3.7,5.29,6.78,9.01,8.94,3.7,2.13,7.71,3.21,11.7,3.34,.61-3.08,2.99-5.54,6.24-6.43Z" style="fill:#fff;"/></g><g id="text90"><path id="path32" d="M59.03,35.54h16.26v2.43h-18.75V12.02h2.5v23.52Z" style="fill:#fff;"/><path id="path34" d="M94.65,23.61h2.46v14.37h-18.37v-14.37h2.46v11.97h13.44v-11.97Z" style="fill:#fff;"/><path id="path36" d="M101.53,23.61h23.36v14.27h-2.46v-11.9h-8.03v11.68h-2.37v-11.68h-8.06v11.9h-2.43v-14.27Z" style="fill:#fff;"/><path id="path38" d="M131.74,37.98h-2.43v-14.37h2.43v14.37Zm0-18.72h-2.43v-4.96h2.43v4.96Z" style="fill:#fff;"/><path id="path40" d="M136.15,23.61h18.37v14.37h-2.46v-12h-13.44v12h-2.46v-14.37Z" style="fill:#fff;"/><path id="path42" d="M161.4,35.64h16.06v2.34h-18.53v-14.37h18.37v8.86h-15.9v3.17Zm13.44-9.66h-13.44v4.13h13.44v-4.13Z" style="fill:#fff;"/><path id="path44" d="M199.99,25.98h-15.94v4.48h15.94v7.52h-18.4v-2.34h15.94v-2.82h-15.94v-9.22h18.4v2.37Z" style="fill:#fff;"/><path id="path46" d="M222.81,25.98h-15.94v4.48h15.94v7.52h-18.4v-2.34h15.94v-2.82h-15.94v-9.22h18.4v2.37Z" style="fill:#fff;"/></g></svg>