<?xml version="1.0" encoding="UTF-8" standalone="no"?>
<svg
   xmlns:dc="http://purl.org/dc/elements/1.1/"
   xmlns:cc="http://creativecommons.org/ns#"
   xmlns:rdf="http://www.w3.org/1999/02/22-rdf-syntax-ns#"
   xmlns:svg="http://www.w3.org/2000/svg"
   xmlns="http://www.w3.org/2000/svg"
   xmlns:sodipodi="http://sodipodi.sourceforge.net/DTD/sodipodi-0.dtd"
   xmlns:inkscape="http://www.inkscape.org/namespaces/inkscape"
   width="250"
   height="80"
   viewBox="0 0 66.145831 21.166667"
   version="1.1"
   id="svg8"
   inkscape:version="1.0.2-2 (e86c870879, 2021-01-15)"
   sodipodi:docname="luminess_logo.svg">
  <defs
     id="defs2" />
  <sodipodi:namedview
     id="base"
     pagecolor="#ffffff"
     bordercolor="#666666"
     borderopacity="1.0"
     inkscape:pageopacity="0.0"
     inkscape:pageshadow="2"
     inkscape:zoom="5.6"
     inkscape:cx="198.20176"
     inkscape:cy="-31.520934"
     inkscape:document-units="mm"
     inkscape:current-layer="text90"
     inkscape:document-rotation="0"
     showgrid="false"
     units="px"
     inkscape:window-width="3840"
     inkscape:window-height="2066"
     inkscape:window-x="3829"
     inkscape:window-y="-11"
     inkscape:window-maximized="1" />
  <metadata
     id="metadata5">
    <rdf:RDF>
      <cc:Work
         rdf:about="">
        <dc:format>image/svg+xml</dc:format>
        <dc:type
           rdf:resource="http://purl.org/dc/dcmitype/StillImage" />
        <dc:title></dc:title>
      </cc:Work>
    </rdf:RDF>
  </metadata>
  <g
     inkscape:label="レイヤー 1"
     inkscape:groupmode="layer"
     id="layer1">
    <g
       inkscape:label="レイヤー 1"
       id="layer1-0"
       transform="matrix(0.06464638,0,0,0.06464638,1.9605129,-1.7748986)">
      <g
         id="g29"
         transform="translate(-10.60106,-3.5138532)">
        <path
           transform="matrix(0.41783931,-0.1119597,0.1119597,0.41783931,8.3772412,88.122642)"
           d="M 102.50611,114.50836 70.976987,118.11402 52.089833,143.61621 48.48417,112.08709 22.981984,93.199937 54.511103,89.594274 73.398258,64.092088 77.003921,95.621207 Z"
           inkscape:randomized="0"
           inkscape:rounded="0"
           inkscape:flatsided="false"
           sodipodi:arg2="1.0471976"
           sodipodi:arg1="0.26179939"
           sodipodi:r2="16.465885"
           sodipodi:r1="41.164715"
           sodipodi:cy="103.85415"
           sodipodi:cx="62.744045"
           sodipodi:sides="4"
           id="path4505-5"
           style="fill:#455a64;fill-opacity:1;stroke:none;stroke-width:1.05833;stroke-miterlimit:4;stroke-dasharray:none;stroke-opacity:1;paint-order:normal"
           sodipodi:type="star" />
        <path
           transform="matrix(0.78158353,0.20942468,-0.20942468,0.78158353,55.049214,82.497084)"
           d="M 102.50611,114.50836 70.976987,118.11402 52.089833,143.61621 48.48417,112.08709 22.981984,93.199937 54.511103,89.594274 73.398258,64.092088 77.003921,95.621207 Z"
           inkscape:randomized="0"
           inkscape:rounded="0"
           inkscape:flatsided="false"
           sodipodi:arg2="1.0471976"
           sodipodi:arg1="0.26179939"
           sodipodi:r2="16.465885"
           sodipodi:r1="41.164715"
           sodipodi:cy="103.85415"
           sodipodi:cx="62.744045"
           sodipodi:sides="4"
           id="path4505"
           style="fill:#455a64;fill-opacity:1;stroke:none;stroke-width:1.05833;stroke-miterlimit:4;stroke-dasharray:none;stroke-opacity:1;paint-order:normal"
           sodipodi:type="star" />
        <path
           inkscape:connector-curvature="0"
           id="path4485"
           d="M 21.202125,246.69921 A 102.38521,102.38521 0 0 0 58.088873,283.28297 102.38521,102.38521 0 0 0 197.94965,245.80739 102.38521,102.38521 0 0 0 160.47407,105.94661 102.38521,102.38521 0 0 0 110.51598,92.361027 89.587049,89.587049 0 0 1 136.32613,210.22903 89.587049,89.587049 0 0 1 21.202125,246.69921 Z"
           style="fill:#263238;fill-opacity:1;stroke:none;stroke-width:1.20961;stroke-miterlimit:4;stroke-dasharray:none;stroke-opacity:1;paint-order:normal" />
        <path
           transform="matrix(0.05954155,-0.22221208,0.22221208,0.05954155,153.86509,260.53765)"
           d="M 102.50611,114.50836 70.976987,118.11402 52.089833,143.61621 48.48417,112.08709 22.981984,93.199937 54.511103,89.594274 73.398258,64.092088 77.003921,95.621207 Z"
           inkscape:randomized="0"
           inkscape:rounded="0"
           inkscape:flatsided="false"
           sodipodi:arg2="1.0471976"
           sodipodi:arg1="0.26179939"
           sodipodi:r2="16.465885"
           sodipodi:r1="41.164715"
           sodipodi:cy="103.85415"
           sodipodi:cx="62.744045"
           sodipodi:sides="4"
           id="path4505-5-6"
           style="fill:#455a64;fill-opacity:1;stroke:none;stroke-width:1.05833;stroke-miterlimit:4;stroke-dasharray:none;stroke-opacity:1;paint-order:normal"
           sodipodi:type="star" />
        <path
           transform="matrix(0,-0.23005088,0.23005088,0,176.7376,216.21292)"
           d="M 102.50611,114.50836 70.976987,118.11402 52.089833,143.61621 48.48417,112.08709 22.981984,93.199937 54.511103,89.594274 73.398258,64.092088 77.003921,95.621207 Z"
           inkscape:randomized="0"
           inkscape:rounded="0"
           inkscape:flatsided="false"
           sodipodi:arg2="1.0471976"
           sodipodi:arg1="0.26179939"
           sodipodi:r2="16.465885"
           sodipodi:r1="41.164715"
           sodipodi:cy="103.85415"
           sodipodi:cx="62.744045"
           sodipodi:sides="4"
           id="path4505-5-6-3"
           style="fill:#455a64;fill-opacity:1;stroke:none;stroke-width:1.05833;stroke-miterlimit:4;stroke-dasharray:none;stroke-opacity:1;paint-order:normal"
           sodipodi:type="star" />
        <path
           transform="matrix(0.19922991,-0.11502544,0.11502544,0.19922991,109.509,270.07121)"
           d="M 102.50611,114.50836 70.976987,118.11402 52.089833,143.61621 48.48417,112.08709 22.981984,93.199937 54.511103,89.594274 73.398258,64.092088 77.003921,95.621207 Z"
           inkscape:randomized="0"
           inkscape:rounded="0"
           inkscape:flatsided="false"
           sodipodi:arg2="1.0471976"
           sodipodi:arg1="0.26179939"
           sodipodi:r2="16.465885"
           sodipodi:r1="41.164715"
           sodipodi:cy="103.85415"
           sodipodi:cx="62.744045"
           sodipodi:sides="4"
           id="path4505-5-6-8"
           style="fill:#455a64;fill-opacity:1;stroke:none;stroke-width:1.05833;stroke-miterlimit:4;stroke-dasharray:none;stroke-opacity:1;paint-order:normal"
           sodipodi:type="star" />
        <path
           transform="matrix(-0.19922991,-0.11502544,0.11502544,-0.19922991,188.85364,176.88784)"
           d="M 102.50611,114.50836 70.976987,118.11402 52.089833,143.61621 48.48417,112.08709 22.981984,93.199937 54.511103,89.594274 73.398258,64.092088 77.003921,95.621207 Z"
           inkscape:randomized="0"
           inkscape:rounded="0"
           inkscape:flatsided="false"
           sodipodi:arg2="1.0471976"
           sodipodi:arg1="0.26179939"
           sodipodi:r2="16.465885"
           sodipodi:r1="41.164715"
           sodipodi:cy="103.85415"
           sodipodi:cx="62.744045"
           sodipodi:sides="4"
           id="path4505-5-6-3-3"
           style="fill:#455a64;fill-opacity:1;stroke:none;stroke-width:1.05833;stroke-miterlimit:4;stroke-dasharray:none;stroke-opacity:1;paint-order:normal"
           sodipodi:type="star" />
        <path
           inkscape:connector-curvature="0"
           id="path4597"
           d="m 105.87695,296.55826 a 34.580507,34.580507 45 0 1 24.83613,-26.03311 34.580507,34.580507 45 0 1 34.25296,9.83155"
           style="fill:none;fill-opacity:1;stroke:#455a64;stroke-width:2.55963;stroke-miterlimit:4;stroke-dasharray:none;stroke-opacity:1;paint-order:normal" />
        <path
           inkscape:connector-curvature="0"
           id="path4597-9"
           d="m 164.96604,280.3567 a 34.580507,34.580507 45 0 1 5.15082,-35.60934 34.580507,34.580507 45 0 1 33.61135,-11.84067"
           style="fill:none;fill-opacity:1;stroke:#455a64;stroke-width:2.55963;stroke-miterlimit:4;stroke-dasharray:none;stroke-opacity:1;paint-order:normal" />
        <path
           inkscape:connector-curvature="0"
           id="path4597-9-1"
           d="m 203.72821,232.90669 a 34.580507,34.580507 45 0 1 -15.83126,-32.30985 34.580507,34.580507 45 0 1 21.07633,-28.7352"
           style="fill:none;fill-opacity:1;stroke:#455a64;stroke-width:2.55963;stroke-miterlimit:4;stroke-dasharray:none;stroke-opacity:1;paint-order:normal" />
        <path
           inkscape:connector-curvature="0"
           id="path4597-9-1-9"
           d="m 208.97328,171.86164 a 34.580507,34.580507 45 0 1 -31.4546,-17.46893 34.580507,34.580507 45 0 1 0.87646,-35.62518"
           style="fill:none;fill-opacity:1;stroke:#455a64;stroke-width:2.55963;stroke-miterlimit:4;stroke-dasharray:none;stroke-opacity:1;paint-order:normal" />
      </g>
      <text
         xml:space="preserve"
         style="font-style:normal;font-weight:normal;font-size:10.5833px;line-height:1.25;font-family:sans-serif;letter-spacing:0px;word-spacing:0px;fill:#000000;fill-opacity:1;stroke:none;stroke-width:0.264583"
         x="8.3154755"
         y="281.50296"
         id="text3736" />
    </g>
    <g
       aria-label="Luminess"
       id="text90"
       style="font-style:normal;font-weight:normal;font-size:8.46667px;line-height:1.25;font-family:sans-serif;fill:#263238;fill-opacity:1;stroke:none;stroke-width:0.264583">
      <path
         d="m 18.264982,13.373102 h 4.301069 v 0.643466 H 17.604582 V 7.1500991 h 0.6604 z"
         style="font-style:normal;font-variant:normal;font-weight:normal;font-stretch:normal;font-size:8.46667px;font-family:Makinas;-inkscape-font-specification:Makinas;fill:#263238;fill-opacity:1;stroke-width:0.264583"
         id="path32" />
      <path
         d="m 27.688372,10.215034 h 0.651934 v 3.801534 h -4.859869 v -3.801534 h 0.651934 v 3.166534 h 3.556001 z"
         style="font-style:normal;font-variant:normal;font-weight:normal;font-stretch:normal;font-size:8.46667px;font-family:Makinas;-inkscape-font-specification:Makinas;fill:#263238;fill-opacity:1;stroke-width:0.264583"
         id="path34" />
      <path
         d="m 29.508705,10.215034 h 6.18067 v 3.776134 h -0.651934 v -3.149601 h -2.125134 v 3.090335 h -0.626534 v -3.090335 h -2.133601 v 3.149601 h -0.643467 z"
         style="font-style:normal;font-variant:normal;font-weight:normal;font-stretch:normal;font-size:8.46667px;font-family:Makinas;-inkscape-font-specification:Makinas;fill:#263238;fill-opacity:1;stroke-width:0.264583"
         id="path36" />
      <path
         d="M 37.501227,14.016568 H 36.85776 v -3.801534 h 0.643467 z m 0,-4.9530015 H 36.85776 V 7.7512326 h 0.643467 z"
         style="font-style:normal;font-variant:normal;font-weight:normal;font-stretch:normal;font-size:8.46667px;font-family:Makinas;-inkscape-font-specification:Makinas;fill:#263238;fill-opacity:1;stroke-width:0.264583"
         id="path38" />
      <path
         d="m 38.669617,10.215034 h 4.859869 v 3.801534 h -0.651934 v -3.175001 h -3.556001 v 3.175001 h -0.651934 z"
         style="font-style:normal;font-variant:normal;font-weight:normal;font-stretch:normal;font-size:8.46667px;font-family:Makinas;-inkscape-font-specification:Makinas;fill:#263238;fill-opacity:1;stroke-width:0.264583"
         id="path40" />
      <path
         d="m 45.349819,13.398502 h 4.250269 v 0.618066 h -4.902202 v -3.801534 h 4.859868 v 2.345267 h -4.207935 z m 3.556002,-2.556935 h -3.556002 v 1.092201 h 3.556002 z"
         style="font-style:normal;font-variant:normal;font-weight:normal;font-stretch:normal;font-size:8.46667px;font-family:Makinas;-inkscape-font-specification:Makinas;fill:#263238;fill-opacity:1;stroke-width:0.264583"
         id="path42" />
      <path
         d="m 55.56061,10.841567 h -4.216402 v 1.185334 h 4.216402 v 1.989667 h -4.868336 v -0.618066 h 4.216402 v -0.745067 h -4.216402 v -2.438401 h 4.868336 z"
         style="font-style:normal;font-variant:normal;font-weight:normal;font-stretch:normal;font-size:8.46667px;font-family:Makinas;-inkscape-font-specification:Makinas;fill:#263238;fill-opacity:1;stroke-width:0.264583"
         id="path44" />
      <path
         d="m 61.597338,10.841567 h -4.216402 v 1.185334 h 4.216402 v 1.989667 h -4.868336 v -0.618066 h 4.216402 v -0.745067 h -4.216402 v -2.438401 h 4.868336 z"
         style="font-style:normal;font-variant:normal;font-weight:normal;font-stretch:normal;font-size:8.46667px;font-family:Makinas;-inkscape-font-specification:Makinas;fill:#263238;fill-opacity:1;stroke-width:0.264583"
         id="path46" />
    </g>
  </g>
</svg>
